<svg xmlns="http://www.w3.org/2000/svg" viewBox="0 0 318.94 244.62"><title>logo</title><rect x="5" y="5" width="308.94" height="220.9" rx="36.13" style="fill:#0c1421;stroke:#ffeabb;stroke-miterlimit:10;stroke-width:10px"/><path d="M372.52,391.62c-21.47,1.41-48.21,1.33-71.27,1.7C260,394,225.39,392.58,189,390c-11.19-1.53-19-5.95-25.57-14.38-7.4-9.45-7.48-18.33-8.47-49.71,0,0-1.89-59.6,7.1-88a26.78,26.78,0,0,1,2.54-5.74,20.81,20.81,0,0,1,2.72-3.66,22.48,22.48,0,0,1,9.31-5.89,22.09,22.09,0,0,1,6.76-1.07L275.17,220l92,1.61a27.09,27.09,0,0,1,16.07,7,29.35,29.35,0,0,1,8.94,16.36,238.94,238.94,0,0,1,6.39,59.55c-.39,32-.12,52.16-4.72,70.24C387.93,387.92,381.9,389.49,372.52,391.62Z" transform="translate(-127.7 -195.04)" style="fill:#253d8e"/><circle cx="287.62" cy="178.6" r="11.17" style="fill:#ffe6ae"/><path d="M192.05,295.21,189,287A12.14,12.14,0,0,1,197.91,271l11.55-2.45.65-8.62a12.13,12.13,0,0,1,15.82-10.65l8.3,2.68.65-3.4a12.14,12.14,0,0,1,16-9.14l5,1.81.61-10.34c.89-15.12,15.91-25.72,30.2-20.73a24,24,0,0,1,3.26,1.42,22.19,22.19,0,0,1,8.53,8.26l4.89,8.12,11.28-1.22a12.14,12.14,0,0,1,13.4,11.17l.85,11.49,9.85-1.06a12.14,12.14,0,0,1,13.41,12.9l-.79,11.4,5.85.93a12.12,12.12,0,0,1,10.24,12v7.72l2.66,3.09a12.13,12.13,0,0,1,1.42,13.79l-7.91,14.32H198.74Z" transform="translate(-127.7 -195.04)" style="fill:#fee388"/><path d="M328.45,250s18.64,15.83,4.85,27.4-5.7,27.76-5.7,27.76l45.51,10.63V299.52a45.8,45.8,0,0,1-5.6-14c-1.45-7.47-10.24-12-10.24-12s-4.9.22-5.54-5.4a32.11,32.11,0,0,1,.95-11.1l-2.21-4.56-7.24-3.83Z" transform="translate(-127.7 -195.04)" style="fill:#f6c85b"/><path d="M192.83,294.74l-3-8.17a12.14,12.14,0,0,1,8.87-16.07l11.55-2.45.65-8.62a12.13,12.13,0,0,1,15.82-10.65l8.3,2.68.65-3.4a12.14,12.14,0,0,1,16-9.14l5,1.81.61-10.34c.89-15.11,15.91-25.71,30.2-20.73a24,24,0,0,1,3.26,1.42,22.19,22.19,0,0,1,8.53,8.26l4.89,8.12,11.28-1.22a12.14,12.14,0,0,1,13.4,11.17l.85,11.49,9.85-1.06A12.14,12.14,0,0,1,353,260.74l-.79,11.4,5.85.93a12.12,12.12,0,0,1,10.24,12v7.72l2.66,3.1a12.11,12.11,0,0,1,1.42,13.78L364.46,324H199.52Z" transform="translate(-127.7 -195.04)" style="fill:none;stroke:#1d1d1b;stroke-linejoin:round;stroke-width:4px"/><path d="M223.53,284.14c0,3.09-.34,3.46-1.14,3.54-.54.05-1.2-1.34-1.39-1.74-.37-.8-3.24-7.19.71-12.24a10.17,10.17,0,0,1,8.75-3.92,6.72,6.72,0,0,1,2.58,1.1c.63.37,1.84,1.67,1.56,2.13s-1.3-.19-3.12-.07a9.25,9.25,0,0,0-2.62.63,8,8,0,0,0-5.19,6.37C223.65,280.06,223.53,282.41,223.53,284.14Z" transform="translate(-127.7 -195.04)" style="fill:#f6c85b"/><path d="M286.09,234.38c-1.75.26-4.64,1.71-5,1.17-.26-.38.53-1.63,1.54-2.44,3.57-2.88,11.65-1.73,14.15,2.79a10.67,10.67,0,0,1,.94,5.76,3.19,3.19,0,0,1-.44,1.4c-.35.58-1.09,1.33-1.5,1.17-.62-.23.28-2.1-.43-4.34a9.15,9.15,0,0,0-3.21-4.26A8.61,8.61,0,0,0,286.09,234.38Z" transform="translate(-127.7 -195.04)" style="fill:#f6c85b"/><path d="M306.77,262.78c-3,1.62-7,5.84-8.18,5.31-.87-.38-.72-2.85.46-4.73,7.31-11.63,21.72-3.63,20.84-3.73C313.19,258.83,309,261.56,306.77,262.78Z" transform="translate(-127.7 -195.04)" style="fill:#f6c85b"/><path d="M304.31,262.3c-2.18,1.49-5.2,5.08-6,4.75-.58-.23-.3-2.19.64-3.75,5.84-9.66,21.88-11.43,25-1a6.64,6.64,0,0,1,.13,1.93c0,.89-.66,3.5-1.3,3.62-.95.16-.73-4.53-3-6.5a11.11,11.11,0,0,0-6.24-2.41C309,258.75,305.94,261.18,304.31,262.3Z" transform="translate(-127.7 -195.04)" style="fill:#1d1d1b"/><path d="M254.38,263.44c-3,.77-5.09,4.79-5.65,4.13-.42-.49.28-4.1.79-5,2.33-4,8.46-4.17,8.78-4.17,6.86-.1,10.51,5,11.82,7.22a9.32,9.32,0,0,1,.72,2.48c.16,1.85.32,4.59-.28,4.74s-1.72-2.76-2.69-4.06a15.89,15.89,0,0,0-6.64-5.24A11.93,11.93,0,0,0,254.38,263.44Z" transform="translate(-127.7 -195.04)" style="fill:#f6c85b"/><path d="M374.09,310.24a15.91,15.91,0,0,0-18.29-.8l-2.57,1.65-4.08-6a11.35,11.35,0,0,0-15.78-3l-6.44,4.38L323,302.55a25.48,25.48,0,0,0-5.62-4.35c-7.7-4.29-14.54-2.68-20.79,2.25l-5.08,4-5.43-4.21a19,19,0,0,0-24.43.94l-5.88,5.31L249,300.77a19,19,0,0,0-24.49,0l-6.82,5.72L214,303c-11.87-13.07-24.89-1-24.89-1l21.78,132.08,107.92,3.75,36.51-16.72,19.91-110.09Z" transform="translate(-127.7 -195.04)" style="fill:#b42018"/><polygon points="111.61 102.7 128.95 110.12 144.25 101.7 146.28 241.05 118.72 240.35 111.61 102.7" style="fill:#ffe8b5"/><polygon points="221.61 110.3 225.85 114.98 231.4 113.05 214.23 232.3 205.18 236.39 221.61 110.3" style="fill:#ffe8b5"/><path d="M374.51,310a15.91,15.91,0,0,0-18.29-.8l-2.57,1.65-4.08-6a11.36,11.36,0,0,0-15.78-3l-6.44,4.39-3.92-3.94a25.29,25.29,0,0,0-5.62-4.36c-7.69-4.28-14.54-2.68-20.79,2.25l-5.07,4-5.44-4.2a19,19,0,0,0-24.43.93l-5.88,5.32-6.82-5.73a19.06,19.06,0,0,0-24.49,0l-6.82,5.73-3.7-3.46c-11.87-13.08-24.89-1-24.89-1l21.79,132.08,107.91,3.75,36.51-16.72,19.92-110.09Z" transform="translate(-127.7 -195.04)" style="fill:none;stroke:#1d1d1b;stroke-linejoin:round;stroke-width:4px"/><path d="M326.27,305.16c-3.32,69.88-7.92,132.5-7.92,132.5" transform="translate(-127.7 -195.04)" style="fill:none;stroke:#1d1d1b;stroke-linecap:round;stroke-linejoin:round;stroke-width:4px"/></svg>